<?xml version="1.0" standalone="no"?>
<!DOCTYPE svg PUBLIC "-//W3C//DTD SVG 20010904//EN"
 "http://www.w3.org/TR/2001/REC-SVG-20010904/DTD/svg10.dtd">
<svg version="1.0" xmlns="http://www.w3.org/2000/svg"
 width="800.000000pt" height="600.000000pt" viewBox="0 0 800.000000 600.000000"
 preserveAspectRatio="xMidYMid meet">

<g transform="translate(0.000000,600.000000) scale(0.100000,-0.100000)"
fill="#000000" stroke="none">
<path d="M1020 4670 c0 -5 4 -10 9 -10 5 0 31 -15 57 -33 27 -19 64 -41 82
-51 29 -15 32 -15 32 0 0 9 -9 18 -19 21 -21 5 -34 56 -17 73 7 7 6 10 -2 10
-7 0 -12 -4 -12 -10 0 -5 -7 -10 -15 -10 -8 0 -15 5 -15 10 0 6 -22 10 -50 10
-27 0 -50 -4 -50 -10z"/>
<path d="M1292 4649 c8 -22 7 -34 -1 -42 -14 -14 -15 -47 -1 -47 6 0 10 12 11
28 l0 27 16 -22 c17 -26 38 -31 29 -8 -7 18 -2 19 23 3 24 -14 72 12 109 60
l25 32 -111 0 -111 0 11 -31z"/>
<path d="M1651 4635 c-47 -106 -131 -166 -236 -169 -61 -1 -67 -6 -30 -26 33
-18 130 -8 182 19 78 39 142 127 143 194 0 20 -5 27 -20 27 -13 0 -25 -14 -39
-45z"/>
<path d="M4259 4653 c-32 -85 -129 -409 -131 -441 -3 -36 -2 -38 94 -102 54
-36 97 -71 98 -78 0 -7 4 -11 8 -8 4 2 26 -5 47 -18 32 -18 39 -27 37 -48 -2
-24 47 -56 704 -468 587 -366 709 -439 716 -426 8 14 15 12 53 -14 24 -16 50
-30 57 -30 8 0 57 -27 109 -60 51 -33 104 -60 115 -60 12 0 54 14 95 30 41 17
182 70 314 117 132 47 247 92 255 100 22 20 2 45 -56 66 -26 10 -238 133 -471
273 -232 140 -429 257 -438 260 -12 5 -15 -2 -15 -29 0 -36 2 -37 168 -140 92
-57 290 -178 440 -267 150 -90 272 -168 272 -174 0 -10 -272 -111 -459 -170
l-84 -26 -46 26 c-25 15 -140 87 -256 159 -115 73 -336 210 -490 305 -154 95
-427 265 -607 377 -180 111 -330 203 -333 203 -15 0 -315 195 -315 204 0 14
137 417 144 423 3 3 45 -19 93 -49 196 -122 953 -588 1023 -630 41 -25 149
-91 239 -147 90 -55 167 -101 171 -101 10 0 20 26 20 48 -1 11 -58 52 -157
112 -147 90 -220 135 -358 220 -33 20 -139 86 -235 145 -96 60 -218 136 -270
170 -52 34 -172 109 -266 168 -160 100 -174 107 -223 107 -47 0 -52 -2 -62
-27z"/>
<path d="M7091 4676 c6 -6 432 -176 435 -173 1 1 4 40 5 87 l4 85 -224 3
c-124 1 -223 0 -220 -2z"/>
<path d="M1236 4581 c-4 -7 -5 -15 -2 -18 9 -9 19 4 14 18 -4 11 -6 11 -12 0z"/>
<path d="M2775 4505 c-22 -9 -44 -20 -50 -26 -5 -5 8 -3 30 7 47 19 154 21
187 2 21 -12 18 -13 -42 -19 -235 -21 -357 -281 -224 -481 13 -21 21 -38 17
-38 -4 0 -25 17 -47 38 l-39 37 26 -35 c34 -47 120 -97 186 -110 143 -27 273
45 343 189 29 61 31 165 3 240 -25 69 -93 145 -159 178 -64 33 -170 41 -231
18z"/>
<path d="M2645 4418 l-40 -43 43 40 c39 36 47 45 39 45 -2 0 -21 -19 -42 -42z"/>
<path d="M1262 4373 c1 -5 -3 -18 -10 -31 -13 -23 -9 -42 9 -42 5 0 9 6 9 14
0 7 7 19 15 26 12 10 13 16 4 26 -12 15 -30 19 -27 7z"/>
<path d="M3553 4368 c-6 -7 -14 -35 -17 -63 -4 -27 -16 -106 -26 -175 -36
-224 -91 -661 -86 -673 2 -7 5 -4 5 6 1 9 9 17 19 17 37 0 43 15 53 141 13
168 46 459 52 465 2 3 8 -68 12 -158 4 -90 9 -171 11 -181 2 -10 4 -70 5 -133
1 -63 6 -117 10 -120 16 -10 69 27 75 52 7 26 -1 296 -10 364 -3 19 -8 58 -11
85 -19 150 -61 362 -75 378 -4 4 -11 2 -17 -5z"/>
<path d="M1190 4276 c-5 -14 -15 -26 -21 -26 -6 0 -32 -21 -58 -47 -26 -27
-112 -109 -191 -183 -187 -177 -460 -446 -460 -454 0 -3 9 -6 20 -6 13 0 20 7
20 20 0 19 10 24 38 21 6 -1 12 7 12 19 0 15 6 20 25 20 20 0 25 5 25 25 0 20
5 25 24 25 19 0 23 4 19 19 -5 19 21 36 38 25 5 -3 9 6 9 20 0 21 5 26 24 26
18 0 25 6 28 23 2 14 10 22 23 22 13 0 22 8 25 25 3 17 12 25 25 25 13 0 22 8
25 25 4 18 12 25 28 24 15 0 21 4 18 12 -7 19 21 44 41 37 10 -4 14 -2 10 4
-11 17 3 43 23 43 10 0 20 9 23 21 3 11 14 23 25 26 11 3 22 14 25 25 3 11 14
22 24 24 10 3 23 15 28 27 6 13 17 21 28 19 11 -2 17 4 17 17 0 14 9 23 25 27
14 4 24 9 21 12 -10 10 16 43 30 38 8 -3 14 1 14 9 0 8 0 18 1 22 2 20 -22 11
-31 -11z"/>
<path d="M2553 4205 c0 -27 2 -38 4 -22 2 15 2 37 0 50 -2 12 -4 0 -4 -28z"/>
<path d="M3258 4140 c-13 -31 -48 -131 -48 -137 0 -3 9 2 19 11 27 25 43 68
39 107 -3 21 -6 28 -10 19z"/>
<path d="M6868 4133 c-10 -2 -18 -8 -18 -12 0 -14 191 -95 239 -101 46 -6 46
-6 48 26 3 31 2 32 -91 63 -88 29 -136 35 -178 24z"/>
<path d="M6620 4085 c-52 -7 -129 -25 -170 -40 -81 -30 -170 -72 -170 -81 0
-3 10 -14 22 -24 17 -14 29 -15 55 -8 35 9 383 155 392 163 6 7 -20 5 -129
-10z"/>
<path d="M4096 3965 c-3 -8 -3 -21 0 -27 5 -15 156 -108 172 -108 16 0 36 40
25 51 -22 22 -157 99 -173 99 -10 0 -20 -7 -24 -15z"/>
<path d="M7289 3929 c35 -16 65 -28 68 -25 5 5 -73 41 -109 50 -12 3 6 -8 41
-25z"/>
<path d="M7465 3927 c-105 -32 -104 -29 -21 -66 42 -19 79 -31 82 -28 3 2 4
29 2 58 l-3 54 -60 -18z"/>
<path d="M6243 3915 c16 -9 31 -14 35 -11 8 9 0 14 -33 21 l-30 6 28 -16z"/>
<path d="M4040 3877 c-14 -23 -24 -50 -22 -59 3 -14 91 -78 107 -78 9 0 65 93
65 107 0 15 -88 73 -110 72 -8 0 -26 -19 -40 -42z"/>
<path d="M4299 3844 c-18 -22 -4 -40 54 -72 47 -26 48 -27 63 -8 20 28 19 31
-34 65 -56 35 -65 37 -83 15z"/>
<path d="M4180 3796 c-16 -25 -30 -51 -30 -59 0 -18 95 -81 109 -73 12 8 61
91 61 104 0 9 -90 72 -103 72 -3 0 -20 -20 -37 -44z"/>
<path d="M3952 3739 c-18 -27 -28 -48 -23 -45 5 3 11 -3 14 -14 4 -16 2 -18
-13 -10 -15 8 -22 4 -38 -23 -11 -19 -28 -47 -38 -62 -11 -16 -13 -26 -6 -22
8 5 12 2 12 -8 0 -11 -5 -15 -14 -12 -9 4 -25 -12 -44 -43 -27 -44 -29 -51
-17 -74 13 -25 13 -26 -7 -15 -14 8 -23 8 -31 0 -6 -6 -8 -11 -4 -11 4 0 -4
-18 -18 -40 -14 -22 -25 -46 -25 -53 0 -13 91 -77 109 -77 4 0 22 25 41 56
l34 57 -21 16 c-11 9 -29 22 -39 29 -50 33 39 -16 124 -70 51 -32 97 -58 101
-58 11 0 71 92 71 107 0 6 -17 21 -37 34 -25 15 -33 24 -23 26 18 4 70 83 70
105 0 9 -10 23 -22 32 -13 9 -18 15 -13 12 6 -3 16 -2 21 2 14 9 64 89 64 102
0 15 -151 110 -176 110 -15 0 -31 -16 -52 -51z"/>
<path d="M4426 3764 c-10 -27 -7 -42 12 -48 9 -4 28 -15 42 -26 14 -12 18 -18
8 -14 -13 4 -25 -7 -48 -42 -16 -26 -30 -54 -30 -61 0 -11 61 -57 95 -69 14
-6 75 75 75 99 0 9 -16 25 -35 37 -19 12 -35 24 -35 26 0 3 4 3 9 -1 9 -5 41
31 41 46 0 11 -95 69 -112 69 -9 0 -19 -7 -22 -16z"/>
<path d="M4303 3708 c-24 -38 -29 -55 -22 -64 17 -21 99 -65 108 -59 12 7 61
91 61 103 0 11 -91 72 -106 72 -5 0 -24 -23 -41 -52z"/>
<path d="M4559 3678 c-12 -23 -9 -27 52 -70 13 -10 16 -15 7 -12 -13 4 -25 -7
-48 -42 -16 -26 -30 -54 -30 -61 0 -11 61 -57 95 -69 14 -6 75 75 75 99 0 9
-16 26 -36 38 -35 21 -36 23 -15 30 11 5 22 13 23 19 0 5 1 14 2 20 1 10 -88
70 -104 70 -5 0 -15 -10 -21 -22z"/>
<path d="M4159 3619 c-37 -57 -39 -51 32 -102 24 -17 24 -17 -8 -2 l-33 15
-30 -47 c-16 -27 -30 -55 -30 -63 0 -15 80 -70 103 -70 12 0 67 82 67 101 0 6
-10 19 -22 30 -13 11 -17 18 -9 17 14 -3 81 83 81 103 0 11 -90 69 -106 69 -7
0 -27 -23 -45 -51z"/>
<path d="M4692 3608 c-21 -21 -13 -37 28 -64 42 -28 50 -37 25 -28 -15 6 -75
-77 -75 -103 0 -7 18 -25 40 -39 45 -30 48 -34 21 -27 -14 3 -26 -8 -50 -46
-17 -28 -31 -55 -31 -59 0 -8 100 -72 112 -72 4 0 21 23 38 52 27 44 30 55 20
71 -13 21 -7 19 42 -15 38 -26 50 -22 81 28 34 57 34 70 -2 89 -31 15 -51 38
-31 33 15 -4 41 34 32 47 -4 6 -27 23 -51 39 -49 31 -71 28 -81 -13 -5 -21 -6
-21 -25 -6 -11 9 -15 14 -8 11 10 -6 43 29 43 45 0 7 -97 69 -109 69 -4 0 -12
-5 -19 -12z m198 -173 c0 -2 -6 -2 -14 1 -18 7 -87 -92 -79 -113 5 -13 3 -13
-18 -2 -15 7 -19 14 -11 17 22 7 74 92 69 112 -5 18 -3 19 24 4 16 -8 29 -17
29 -19z"/>
<path d="M6320 3588 c-72 -18 -82 -23 -66 -32 10 -6 31 -20 47 -31 16 -11 68
-47 116 -81 49 -34 135 -89 193 -124 58 -35 116 -70 130 -79 14 -10 21 -11 17
-3 -24 38 78 3 542 -188 123 -50 226 -89 229 -86 8 8 19 3 -233 111 -270 115
-420 187 -450 215 -22 21 -283 160 -300 160 -6 0 -15 4 -20 8 -6 5 -36 19 -68
32 -32 12 -56 25 -53 27 2 3 37 13 76 23 39 10 74 21 77 24 11 10 -78 46 -114
45 -21 0 -76 -10 -123 -21z"/>
<path d="M4289 3539 c-37 -58 -39 -50 32 -102 l24 -19 -28 17 c-34 20 -44 13
-82 -51 -23 -38 -25 -48 -13 -61 11 -14 11 -16 -2 -8 -8 4 -27 17 -42 27 -14
10 -31 18 -36 18 -9 0 -72 -99 -72 -113 0 -7 98 -67 109 -67 15 0 73 101 67
117 -4 11 3 9 28 -6 47 -29 57 -26 89 25 33 55 33 61 5 85 -13 11 -17 18 -9
17 14 -3 81 83 81 103 0 11 -90 69 -106 69 -7 0 -27 -23 -45 -51z"/>
<path d="M4420 3459 c-24 -39 -28 -54 -20 -64 11 -13 93 -65 103 -65 6 0 67
100 67 111 0 11 -89 69 -107 69 -6 0 -25 -23 -43 -51z"/>
<path d="M4952 3448 c-20 -20 -13 -43 19 -62 17 -10 27 -21 21 -25 -11 -7 -72
-102 -72 -112 0 -4 15 -17 34 -29 l34 -21 -21 -23 c-12 -13 -31 -41 -42 -61
-20 -38 -20 -38 0 -51 11 -7 29 -20 40 -29 20 -16 20 -16 -2 -6 -32 16 -36 15
-65 -33 -36 -56 -35 -72 7 -97 19 -12 35 -23 35 -26 0 -2 -4 -1 -10 2 -11 7
-72 -75 -80 -106 -5 -19 -6 -19 -25 -4 -11 9 -15 14 -8 10 8 -3 27 17 50 51
l37 56 -29 24 c-17 13 -33 24 -37 24 -4 0 3 11 16 24 12 14 31 41 41 60 18 33
18 37 4 52 -15 14 -15 18 5 39 11 13 30 40 41 60 l19 37 -23 17 c-12 10 -38
26 -58 36 l-35 19 -17 -23 c-10 -12 -26 -38 -36 -58 l-19 -35 24 -19 c19 -14
21 -19 9 -19 -9 0 -24 -10 -33 -22 -16 -23 -16 -23 -6 -1 5 12 10 26 10 32 0
12 -84 71 -102 71 -15 0 -68 -80 -68 -103 0 -8 16 -25 35 -37 19 -12 35 -24
35 -26 0 -3 -4 -3 -9 1 -10 5 -48 -40 -70 -83 -10 -18 -10 -27 1 -40 10 -12 6
-12 -20 4 -22 12 -28 20 -18 22 8 2 29 26 47 53 31 49 32 51 13 68 -10 10 -35
28 -55 39 -41 25 -44 23 -88 -51 -20 -32 -21 -40 -9 -54 12 -15 11 -15 -12 -3
-13 7 -48 28 -77 47 -28 18 -56 33 -62 33 -5 0 -19 -16 -31 -35 -28 -46 -38
-45 -11 1 12 19 21 39 21 44 0 9 -129 90 -142 90 -8 0 -68 -97 -68 -109 0 -5
30 -28 67 -51 52 -33 70 -40 83 -32 13 8 16 6 16 -10 -1 -16 48 -52 229 -164
127 -79 234 -143 239 -144 7 0 4 25 -10 72 -3 10 3 21 17 28 32 18 61 0 94
-55 28 -48 30 -95 10 -162 -5 -17 -3 -23 7 -23 25 0 65 53 83 110 10 30 24 64
30 75 17 26 26 105 16 130 -10 24 7 61 43 92 33 29 33 46 -1 72 -23 17 -24 19
-7 15 17 -5 27 4 53 46 18 29 30 59 27 66 -4 12 -2 12 15 3 17 -9 18 -13 7
-22 -18 -15 -68 -93 -68 -106 0 -6 10 -17 22 -25 17 -12 19 -16 6 -16 -19 0
-32 -27 -17 -36 6 -3 8 -13 5 -21 -3 -8 1 -24 9 -37 18 -27 15 -168 -4 -174
-6 -2 -11 -23 -11 -46 0 -23 -7 -69 -16 -101 -8 -33 -13 -67 -11 -76 3 -9 0
-41 -5 -70 -21 -124 -19 -180 8 -158 8 6 24 29 36 50 12 22 25 39 30 39 4 0 8
10 9 23 0 33 93 212 110 212 12 0 14 -23 12 -135 -3 -168 -6 -182 -36 -174
-15 3 -28 0 -36 -10 -8 -9 -23 -16 -35 -16 -29 0 -42 -11 -51 -40 -11 -36 -44
-80 -60 -80 -22 0 -28 -19 -16 -48 15 -36 20 -110 10 -146 -8 -28 11 -80 35
-97 5 -4 6 -19 2 -33 -4 -16 -2 -26 4 -26 6 0 8 -4 5 -10 -3 -5 2 -24 11 -42
15 -29 18 -30 29 -15 15 21 25 22 25 2 0 -8 7 -15 15 -15 20 0 30 -46 15 -65
-8 -10 -30 -15 -64 -14 -38 0 -46 3 -31 9 14 6 15 9 5 10 -8 1 -25 3 -37 6
-18 3 -23 -1 -23 -19 0 -18 -2 -19 -10 -7 -9 13 -10 13 -10 0 0 -13 -1 -13
-10 0 -5 8 -10 10 -10 5 0 -7 -22 -10 -55 -8 -46 2 -55 -1 -55 -15 1 -24 27
-55 39 -47 6 3 11 0 11 -7 0 -11 2 -11 9 0 8 13 22 -57 20 -102 -1 -19 -2 -18
-9 4 -8 25 -8 25 -9 2 -1 -13 -5 -20 -11 -17 -15 9 -12 -4 5 -21 8 -9 15 -28
15 -44 l0 -29 290 -1 290 -1 -6 33 c-4 18 -15 60 -26 92 -42 127 -41 133 57
332 48 99 137 264 198 369 138 238 142 246 125 291 -13 38 -20 41 -38 19 -7
-8 -19 -15 -26 -15 -11 0 -10 8 4 38 9 20 24 45 34 55 9 11 27 40 40 65 12 26
28 52 35 59 6 7 21 29 33 50 13 21 34 55 48 75 20 31 22 41 12 52 -17 21 -100
69 -107 62 -4 -3 -12 3 -19 13 -8 10 -35 31 -60 46 -45 27 -48 27 -61 9 -7
-10 -13 -24 -13 -31 0 -7 -4 -13 -10 -13 -14 0 -13 7 6 35 20 31 12 43 -52 80
-36 21 -48 24 -60 14 -12 -10 -13 -9 -8 4 4 11 -10 26 -50 53 -49 32 -58 35
-73 23 -12 -10 -15 -11 -9 -1 10 17 -6 36 -60 67 -38 23 -48 25 -61 13 -13
-10 -15 -10 -9 0 10 17 -8 38 -62 69 -43 26 -45 26 -58 8 -8 -10 -14 -24 -14
-30 0 -16 100 -77 115 -71 7 2 15 -4 18 -15 5 -19 2 -18 -39 6 l-44 26 -31
-48 c-18 -29 -28 -57 -26 -70 4 -24 -5 -22 -48 10 -19 15 -19 15 5 11 21 -4
30 2 53 39 15 24 27 50 27 58 0 8 -20 27 -45 42 -45 29 -62 47 -26 28 14 -8
22 -6 35 8 24 27 21 34 -40 71 -55 33 -57 33 -71 14 -8 -10 -12 -27 -9 -36 4
-19 -11 -14 -49 17 -20 16 -20 16 1 6 17 -8 25 -6 39 9 21 23 16 31 -40 70
-49 33 -56 35 -73 18z m142 -211 c-22 -32 -33 -60 -31 -74 4 -24 -5 -22 -48
10 -19 15 -19 15 5 11 21 -4 30 3 53 43 16 25 26 55 24 65 -4 14 -2 16 13 8
18 -9 16 -14 -16 -63z m296 -112 c0 -1 -8 -10 -19 -19 -17 -16 -18 -16 -14 8
3 16 10 23 19 19 8 -3 14 -6 14 -8z m67 -42 c-3 -3 -11 -2 -17 2 -9 6 -9 10 1
16 14 8 27 -7 16 -18z m-117 -23 c-6 -11 -13 -20 -16 -20 -2 0 0 9 6 20 6 11
13 20 16 20 2 0 0 -9 -6 -20z m-110 -40 c-29 -29 -50 -76 -48 -107 3 -30 25
-63 44 -63 17 0 124 90 124 104 0 6 8 16 19 21 91 49 121 66 121 73 0 4 9 8
20 9 11 1 20 -1 20 -4 0 -2 -20 -28 -45 -56 -25 -29 -45 -59 -45 -68 0 -11 -6
-16 -18 -12 -20 5 -67 -40 -67 -64 0 -9 -9 -17 -21 -18 -12 -1 -48 -22 -81
-48 -32 -26 -65 -47 -71 -47 -9 0 -12 16 -10 52 3 52 -4 63 -55 81 -13 4 14
57 30 57 18 0 74 91 69 112 -3 15 -1 16 15 8 18 -10 18 -11 -1 -30z m-494 0
c0 -24 -6 -25 -32 -5 -14 11 -15 14 -3 9 10 -3 20 -1 24 5 9 15 11 14 11 -9z
m580 -10 c0 -20 -7 -25 -19 -13 -4 3 -2 12 4 20 15 17 15 17 15 -7z m271 5 c0
-17 -13 -20 -21 -6 -4 5 0 12 6 14 7 3 13 6 14 6 0 1 1 -6 1 -14z m-802 -45
c3 -5 -5 -25 -18 -42 -43 -57 -50 -77 -35 -95 11 -13 7 -13 -22 2 -32 16 -33
18 -14 26 24 8 78 94 69 109 -3 6 -2 10 4 10 5 0 13 -4 16 -10z m855 -5 c0 -2
-16 -30 -35 -60 -20 -31 -33 -60 -30 -65 3 -6 2 -10 -3 -10 -21 0 -18 15 14
65 19 30 34 59 34 65 0 5 5 10 10 10 6 0 10 -2 10 -5z m-145 -84 c3 -5 1 -12
-5 -16 -5 -3 -10 1 -10 9 0 18 6 21 15 7z m275 0 c0 -6 -4 -13 -10 -16 -5 -3
-10 1 -10 9 0 9 5 16 10 16 6 0 10 -4 10 -9z m76 -38 c-10 -10 -19 5 -10 18 6
11 8 11 12 0 2 -7 1 -15 -2 -18z m-486 -43 c0 -5 -4 -10 -10 -10 -5 0 -10 5
-10 10 0 6 5 10 10 10 6 0 10 -4 10 -10z m254 -26 c-21 -32 -25 -30 -11 5 6
17 14 28 19 25 4 -3 1 -16 -8 -30z m89 -4 c-3 -11 -9 -17 -15 -14 -5 3 -4 12
3 20 16 19 18 18 12 -6z m-292 -36 c21 -25 -2 -248 -31 -297 -12 -20 -26 -37
-31 -37 -4 0 -13 18 -19 41 -15 55 11 262 36 290 21 23 28 24 45 3z m349 -18
c0 -3 -4 -8 -10 -11 -5 -3 -10 -1 -10 4 0 6 5 11 10 11 6 0 10 -2 10 -4z
m-160 -265 c0 -27 -9 -49 -30 -76 -16 -21 -30 -41 -30 -44 0 -14 -43 -32 -52
-23 -12 12 12 66 62 145 34 54 50 53 50 -2z m-585 -840 c3 -5 1 -12 -5 -16 -5
-3 -10 1 -10 9 0 18 6 21 15 7z"/>
<path d="M4551 3379 c-17 -27 -29 -55 -25 -61 7 -11 94 -68 105 -68 9 0 69 96
69 110 0 11 -89 70 -107 70 -6 0 -25 -23 -42 -51z"/>
<path d="M4378 3316 c-16 -24 -28 -49 -28 -57 0 -15 79 -69 101 -69 15 0 69
81 69 103 0 14 -80 67 -101 67 -8 0 -26 -20 -41 -44z"/>
<path d="M3860 3283 c-16 -27 -30 -53 -30 -59 0 -15 99 -76 112 -68 11 7 68
94 68 105 0 9 -94 69 -108 69 -7 0 -25 -21 -42 -47z"/>
<path d="M4230 3225 c-17 -30 -29 -59 -26 -64 8 -12 92 -61 104 -61 6 0 24 23
42 51 24 39 28 54 20 64 -11 14 -93 65 -104 65 -2 0 -19 -25 -36 -55z"/>
<path d="M4507 3235 c-15 -25 -27 -52 -27 -59 0 -15 98 -79 110 -71 13 8 60
92 60 107 0 14 -82 68 -103 68 -7 0 -24 -20 -40 -45z"/>
<path d="M3991 3200 c-17 -28 -31 -54 -31 -59 0 -9 96 -71 110 -71 8 0 70 100
70 112 0 7 -99 68 -110 68 -4 0 -22 -23 -39 -50z"/>
<path d="M4377 3168 c-34 -45 -49 -77 -42 -87 7 -12 91 -61 103 -61 6 0 25 23
43 51 l33 52 -27 21 c-15 12 -40 29 -56 39 l-30 17 -24 -32z"/>
<path d="M3690 2964 c-19 -19 -40 -34 -46 -34 -7 0 -24 -15 -38 -32 -15 -18
-45 -55 -67 -82 -22 -26 -38 -51 -35 -53 9 -9 65 9 91 29 15 11 30 30 35 42 9
23 51 41 122 51 26 3 56 14 67 23 24 19 33 69 13 64 -7 -1 -26 5 -42 13 -42
22 -61 18 -100 -21z"/>
<path d="M3910 2886 c0 -22 -40 -46 -66 -40 -16 4 -24 0 -29 -15 -13 -42 -94
-118 -155 -145 -33 -15 -60 -30 -60 -32 0 -10 104 8 184 32 101 30 114 30 122
-2 8 -30 -10 -74 -29 -74 -8 0 -26 -9 -41 -21 -14 -11 -52 -30 -84 -41 -72
-25 -98 -41 -105 -67 -9 -36 25 -45 75 -20 103 53 205 89 285 104 48 8 89 12
92 9 12 -11 -52 -56 -70 -50 -11 3 -28 9 -39 12 -16 5 -22 0 -32 -27 -10 -29
-12 -31 -20 -13 -5 13 -6 8 -2 -13 3 -18 1 -33 -4 -33 -5 0 -32 -18 -60 -40
-28 -23 -60 -43 -70 -45 -11 -2 -32 -15 -46 -30 -30 -30 -44 -28 -25 4 20 31
3 37 -48 15 -41 -17 -51 -27 -77 -81 -43 -85 -61 -103 -108 -103 -27 0 -38 -4
-38 -15 0 -18 -36 -20 -43 -2 -4 10 -6 10 -6 0 -1 -7 -9 -13 -18 -13 -22 0
-143 127 -143 150 0 9 -8 28 -19 41 -10 13 -32 51 -49 85 -17 33 -37 66 -46
73 -14 12 -14 8 -1 -35 8 -27 25 -81 39 -120 22 -64 22 -72 7 -82 -13 -9 -13
-11 -1 -8 8 1 12 1 7 -1 -4 -3 -4 -9 -1 -15 4 -6 -3 -5 -16 2 -12 6 -28 9 -36
6 -8 -3 -14 -1 -14 4 0 5 -7 6 -17 3 -10 -4 -14 -2 -10 4 4 5 0 19 -8 29 -13
16 -14 17 -9 2 3 -10 1 -18 -5 -18 -6 0 -11 6 -12 13 0 6 -5 1 -10 -13 -8 -20
-12 -22 -20 -10 -8 13 -10 13 -18 0 -5 -8 -7 -18 -5 -22 3 -4 -2 -5 -10 -2
-10 4 -16 1 -16 -7 -1 -9 -4 -8 -11 4 -23 40 -34 -5 -13 -57 7 -18 -9 -36 -31
-36 -5 0 -4 4 3 9 10 6 8 10 -9 14 -13 4 -25 4 -28 2 -2 -3 2 -5 10 -5 11 0
11 -2 -1 -10 -11 -7 -11 -10 -2 -10 7 0 10 -4 7 -10 -3 -5 0 -7 8 -4 8 3 14
-2 14 -11 0 -11 -6 -15 -18 -12 -13 3 -16 0 -14 -14 2 -12 -4 -23 -17 -30 -18
-9 -24 -8 -35 7 -7 10 -13 22 -13 26 0 5 -19 18 -42 28 -24 11 -33 18 -21 14
12 -3 34 1 49 9 22 12 24 15 10 20 -11 4 -15 3 -10 -4 10 -16 -38 0 -52 17 -6
7 -14 11 -17 7 -11 -11 -8 -21 8 -26 11 -4 10 -5 -2 -3 -10 0 -23 11 -29 24
-6 12 -14 19 -17 15 -12 -12 -48 37 -54 72 -3 20 -11 35 -19 35 -8 0 -14 5
-14 10 0 6 -4 10 -10 10 -24 0 -5 -86 41 -186 10 -24 19 -46 19 -50 0 -17 -55
76 -71 121 -10 28 -18 43 -18 34 -1 -19 30 -112 39 -119 10 -7 37 -98 46 -155
13 -82 7 -176 -15 -239 -12 -33 -21 -67 -21 -78 0 -22 -13 -23 -30 -3 -9 11
-11 44 -5 127 8 141 -9 191 -68 202 -26 5 -28 3 -31 -36 -1 -18 -41 -58 -57
-58 -17 0 -79 -54 -79 -69 0 -14 -6 -14 -40 4 -19 10 -31 11 -35 4 -5 -7 -11
-7 -20 1 -16 13 -52 -5 -59 -30 -2 -9 -4 -6 -5 8 0 12 -5 22 -10 22 -5 0 -13
10 -17 23 -7 23 -4 34 9 29 4 -1 7 9 7 23 0 31 -25 33 -40 5 -7 -12 -16 -18
-23 -13 -6 4 -1 -6 11 -22 14 -18 19 -31 12 -35 -12 -7 28 -188 53 -236 8 -16
22 -54 31 -84 9 -30 21 -63 27 -72 5 -10 9 -26 8 -35 0 -13 -3 -11 -11 7 -27
60 -161 345 -164 349 -2 2 -7 1 -11 -4 -5 -4 -3 -10 4 -12 7 -2 9 -11 6 -19
-3 -7 -8 -12 -12 -9 -4 2 -20 -3 -36 -11 -15 -8 -35 -13 -44 -12 -10 2 -15 -4
-15 -15 2 -14 -1 -15 -12 -6 -8 6 -11 16 -7 22 4 7 0 8 -11 4 -10 -4 -19 -7
-22 -7 -2 0 1 -11 6 -25 6 -17 6 -25 -1 -25 -5 0 -9 -6 -8 -12 3 -28 -1 -43
-9 -31 -11 17 -118 22 -114 6 1 -7 -3 -13 -8 -13 -6 0 -8 -11 -4 -25 3 -14 3
-37 0 -51 -6 -23 -9 -25 -24 -12 -20 16 -109 17 -98 0 2 -4 -2 -18 -10 -32 -7
-14 -13 -21 -14 -17 0 15 -30 -21 -30 -36 0 -21 -25 -38 -44 -31 -12 5 -17 2
-16 -7 4 -27 0 -40 -10 -34 -5 3 -10 1 -10 -4 0 -8 203 -11 664 -11 l665 0 73
82 c117 132 199 219 261 280 71 70 247 177 347 211 130 44 242 76 340 98 52
11 126 32 164 46 59 22 66 27 48 34 -27 10 -28 23 -3 48 21 21 31 15 44 -21 4
-11 17 -18 34 -18 16 0 44 -4 63 -10 48 -14 56 5 20 47 -25 28 -28 36 -19 65
14 51 12 178 -5 225 -13 38 -13 44 5 80 22 46 17 73 -14 70 -12 -1 -25 6 -32
18 -6 11 -23 39 -38 62 -16 26 -27 56 -27 78 0 25 -8 44 -30 67 -16 17 -30 37
-30 45 0 7 -12 19 -27 25 -16 7 -39 20 -52 30 -29 22 -81 24 -81 4z m-923
-728 c-3 -8 -6 -5 -6 6 -1 11 2 17 5 13 3 -3 4 -12 1 -19z m-892 -488 c3 -6
-1 -7 -9 -4 -18 7 -21 14 -7 14 6 0 13 -4 16 -10z"/>
<path d="M7473 2833 c-28 -8 -66 -28 -85 -43 l-33 -29 50 25 c28 13 67 25 87
26 29 2 38 7 38 21 0 9 -1 17 -2 16 -2 0 -26 -7 -55 -16z"/>
<path d="M3564 2535 c-10 -8 -14 -15 -8 -15 5 0 19 7 30 15 10 8 14 15 8 15
-5 0 -19 -7 -30 -15z"/>
<path d="M4740 2345 c-57 -51 -106 -98 -108 -103 -2 -6 1 -25 6 -44 l9 -33 7
42 c6 34 18 52 53 83 25 22 51 40 58 40 17 0 85 76 85 95 0 8 -1 15 -2 14 -2
0 -50 -42 -108 -94z"/>
<path d="M6972 2284 c-13 -9 -22 -26 -22 -42 0 -36 -2 -38 -105 -114 -116 -84
-165 -109 -188 -97 -9 6 -17 16 -17 22 0 16 74 89 126 124 23 16 63 44 88 63
l48 35 -143 3 c-170 3 -236 -8 -271 -46 -46 -49 -51 -70 -56 -222 -5 -177 3
-256 30 -301 20 -32 21 -33 32 -14 20 37 219 230 223 217 6 -15 -47 -83 -105
-137 -25 -23 -44 -50 -45 -64 -1 -13 -12 -30 -24 -38 -45 -30 -27 -36 95 -30
178 9 164 -3 159 144 l-4 125 -38 32 c-47 40 -43 66 8 66 23 0 57 -15 105 -46
55 -35 78 -45 97 -40 19 5 27 1 36 -16 7 -13 30 -41 52 -62 l40 -39 -27 -22
-28 -22 17 -49 c26 -76 30 -137 12 -153 -13 -10 -14 -17 -5 -37 19 -42 35 -28
42 39 3 34 13 85 22 114 16 50 16 52 -10 116 -28 69 -32 102 -16 112 6 3 10
13 10 20 0 14 -16 20 -237 84 -40 12 -73 25 -73 29 0 5 15 25 34 45 32 35 37
37 95 37 48 0 61 3 61 15 0 9 9 15 21 15 15 0 19 5 15 15 -6 16 11 54 29 67 6
4 21 8 34 8 19 0 21 2 11 15 -7 8 -27 17 -46 21 -19 3 -31 10 -28 15 9 15 -30
10 -54 -7z"/>
<path d="M7355 2274 c42 -40 84 -62 135 -70 31 -5 41 -4 36 4 -4 7 -18 12 -32
12 -25 0 -86 27 -139 63 l-30 20 30 -29z"/>
<path d="M4937 2273 c-10 -10 -8 -33 3 -33 5 0 14 9 20 20 8 15 8 20 -3 20 -8
0 -17 -3 -20 -7z"/>
<path d="M2860 2220 c-9 -6 -10 -10 -3 -10 6 0 15 5 18 10 8 12 4 12 -15 0z"/>
<path d="M7268 2183 c0 -10 -1 -24 -1 -30 1 -7 -11 -13 -26 -14 -26 -1 -26 -1
4 -10 22 -6 33 -5 40 4 6 7 18 16 28 20 25 9 21 26 -9 37 -33 13 -34 13 -36
-7z"/>
<path d="M7340 2054 c0 -22 4 -25 27 -22 36 4 39 22 8 36 -35 16 -35 16 -35
-14z"/>
<path d="M2860 2060 c-8 -5 -10 -10 -5 -10 6 0 17 5 25 10 8 5 11 10 5 10 -5
0 -17 -5 -25 -10z"/>
<path d="M7175 2050 c3 -5 11 -10 16 -10 6 0 7 5 4 10 -3 6 -11 10 -16 10 -6
0 -7 -4 -4 -10z"/>
<path d="M7170 1990 c18 -11 77 -13 83 -2 3 4 -18 8 -46 10 -38 2 -48 0 -37
-8z"/>
<path d="M2320 1960 c0 -5 5 -10 10 -10 6 0 10 -4 10 -10 0 -5 -7 -10 -15 -10
-8 0 -15 -4 -15 -10 0 -13 30 -13 50 0 13 8 11 12 -7 30 -25 22 -33 25 -33 10z"/>
<path d="M2381 1938 c5 -10 12 -18 14 -18 3 0 5 8 5 18 0 10 -7 19 -14 19 -11
0 -13 -5 -5 -19z"/>
<path d="M7314 1919 c-4 -8 -26 -10 -60 -6 l-54 6 0 -56 0 -56 40 6 c45 6 56
-3 40 -33 -16 -29 -67 -28 -73 3 -4 18 -5 17 -6 -6 l-1 -29 106 5 c58 3 106 6
108 8 10 14 36 80 36 91 0 8 5 19 11 25 8 8 3 16 -20 27 -31 16 -48 18 -43 4
1 -5 -2 -8 -8 -8 -5 0 -10 7 -10 15 0 18 -55 21 -66 4z"/>
<path d="M6870 1787 c0 -98 10 -173 21 -155 5 7 9 29 9 48 0 59 19 112 38 108
14 -3 18 -20 22 -103 6 -117 4 -135 -19 -135 -10 0 -20 -3 -24 -6 -9 -9 14
-54 28 -54 15 0 45 69 45 103 0 16 6 27 14 27 10 0 9 17 -8 85 -19 73 -26 88
-56 110 -71 54 -70 54 -70 -28z"/>
<path d="M6867 1603 c-2 -4 -7 -21 -10 -38 -6 -30 -6 -30 9 4 8 18 13 35 11
38 -3 2 -7 1 -10 -4z"/>
<path d="M4895 1470 c-3 -5 -1 -10 4 -10 6 0 11 5 11 10 0 6 -2 10 -4 10 -3 0
-8 -4 -11 -10z"/>
<path d="M1332 1368 c3 -43 3 -43 46 -46 25 -2 42 1 42 7 0 6 -4 11 -8 11 -5
0 -14 11 -20 25 -6 14 -18 25 -27 25 -8 0 -15 5 -15 10 0 6 -5 10 -11 10 -6 0
-9 -17 -7 -42z"/>
<path d="M1510 1330 c0 -5 5 -10 10 -10 6 0 10 5 10 10 0 6 -4 10 -10 10 -5 0
-10 -4 -10 -10z"/>
</g>
</svg>
